<?xml version="1.0" standalone="no"?><!DOCTYPE svg PUBLIC "-//W3C//DTD SVG 1.1//EN" "http://www.w3.org/Graphics/SVG/1.1/DTD/svg11.dtd"><svg t="1510217671776" class="icon" style="" viewBox="0 0 1024 1024" version="1.1" xmlns="http://www.w3.org/2000/svg" p-id="1884" xmlns:xlink="http://www.w3.org/1999/xlink" width="200" height="200"><defs><style type="text/css"></style></defs><path d="M1024 512c0-282.784-229.216-512-512-512S0 229.216 0 512s229.216 512 512 512c117.408 0 228.832-39.68 318.784-111.328a24.96 24.96 0 1 0-31.136-39.072A459.84 459.84 0 0 1 512 974.048C256.832 974.048 49.952 767.168 49.952 512S256.832 49.952 512 49.952 974.048 256.832 974.048 512c0 87.488-24.32 171.328-69.568 243.968a24.96 24.96 0 1 0 42.4 26.4A509.632 509.632 0 0 0 1024 512z m-686.816-12.48a62.432 62.432 0 1 0 0-124.864 62.432 62.432 0 0 0 0 124.864z m374.624 0a62.432 62.432 0 1 0 0-124.864 62.432 62.432 0 0 0 0 124.864z m-359.008 269.248c43.392 34.688 100.352 55.424 171.712 55.424s128.32-20.736 171.712-55.424c26.528-21.216 42.688-42.784 50.432-58.272a24.96 24.96 0 1 0-44.672-22.336 94.848 94.848 0 0 1-7.776 11.808 166.496 166.496 0 0 1-29.184 29.824c-34.688 27.744-80.704 44.48-140.48 44.48s-105.824-16.736-140.48-44.48a166.496 166.496 0 0 1-29.184-29.824 86.72 86.72 0 0 1-7.776-11.808 24.96 24.96 0 1 0-44.672 22.336c7.744 15.488 23.936 37.088 50.432 58.272z" fill="" p-id="1885"></path></svg>