<?xml version="1.0" standalone="no"?><!DOCTYPE svg PUBLIC "-//W3C//DTD SVG 1.1//EN" "http://www.w3.org/Graphics/SVG/1.1/DTD/svg11.dtd"><svg t="1510567380190" class="icon" style="" viewBox="0 0 1024 1024" version="1.1" xmlns="http://www.w3.org/2000/svg" p-id="654" xmlns:xlink="http://www.w3.org/1999/xlink" width="200" height="200"><defs><style type="text/css"></style></defs><path d="M707.35872 597.72928a17.12128 17.12128 0 1 1-34.24256 0 33.87392 33.87392 0 1 0-67.72736 0 17.12128 17.12128 0 1 1-34.24256 0 68.3008 68.3008 0 0 1 68.11648-68.44416 68.34176 68.34176 0 0 1 68.11648 68.44416M380.928 519.70048a52.4288 52.4288 0 1 0 52.18304 52.4288 52.3264 52.3264 0 0 0-52.18304-52.4288z m121.32352-200.6016a10.24 10.24 0 0 1 9.13408 5.5296l60.45696 105.1648a22.97856 22.97856 0 0 0 20.02944 11.75552h234.2912a334.0288 334.0288 0 0 1 6.63552 66.4576c0 183.3984-148.00896 332.12416-330.52672 332.12416S171.76576 691.4048 171.76576 508.0064a335.31904 335.31904 0 0 1 6.61504-66.4576h234.2912a22.95808 22.95808 0 0 0 19.84512-11.3664l60.7232-105.65632a10.24 10.24 0 0 1 9.07264-5.4272z m322.92864 529.73568a4.46464 4.46464 0 0 0 2.3552-4.096 4.64896 4.64896 0 0 0-4.62848-4.66944H789.9136a22.016 22.016 0 0 1-14.99136-38.03136 401.408 401.408 0 0 0 127.3856-294.0928c0-221.94176-179.11808-401.92-400.01536-401.92S102.2976 286.06464 102.2976 508.0064a401.69472 401.69472 0 0 0 121.30304 288.29696C311.296 881.9712 434.81088 913.8176 555.008 913.8176a587.91936 587.91936 0 0 0 270.06976-64.98304z" p-id="655"></path><path d="M419.06176 146.3296a504.91392 504.91392 0 0 1 85.89312-40.18176h-2.6624a398.35648 398.35648 0 0 0-306.33984 143.54432 493.34272 493.34272 0 0 1 123.8016-26.74688 495.32928 495.32928 0 0 1 99.30752-76.61568z" p-id="656"></path><path d="M172.6464 531.16928c-0.512-7.65952-0.88064-15.36-0.88064-23.16288a335.38048 335.38048 0 0 1 6.61504-66.4576h11.10016q5.7344-20.19328 12.92288-39.07584a490.12736 490.12736 0 0 1 53.92384-103.60832 530.7392 530.7392 0 0 1 63.488-75.93984 493.34272 493.34272 0 0 0-123.8016 26.74688 403.16928 403.16928 0 0 0 13.84448 532.48 531.41504 531.41504 0 0 1-30.72-105.39008 542.59712 542.59712 0 0 1-6.49216-145.59232zM712.704 272.384a491.97056 491.97056 0 0 1 67.46112 141.02528c2.6624 9.1136 5.05856 18.57536 7.33184 28.18048h38.68672a335.44192 335.44192 0 0 1 4.73088 101.94944c4.56704 11.91936 8.74496 24.1664 12.41088 36.72064a478.14656 478.14656 0 0 1 17.38752 86.65088c0.55296 5.50912 0.90112 11.22304 1.29024 16.93696a401.63328 401.63328 0 0 0 40.30464-175.80032c0-215.18336-168.40704-390.94272-380.0064-401.408a517.16096 517.16096 0 0 1 90.112 57.79456A499.712 499.712 0 0 1 712.704 272.384z" p-id="657"></path><path d="M419.06176 146.3296a495.32928 495.32928 0 0 0-99.30752 76.5952q18.432-1.61792 37.84704-2.048h10.83392c8.45824 0.38912 17.408 0.512 25.55904 1.04448A520.192 520.192 0 0 1 462.848 231.0144c86.1184 17.77664 154.0096 53.63712 212.5824 100.18816a501.06368 501.06368 0 0 1 100.352 107.90912c0.55296 0.77824 1.06496 1.6384 1.61792 2.43712h10.0352c-2.27328-9.60512-4.66944-19.0464-7.33184-28.18048A491.97056 491.97056 0 0 0 712.704 272.384a499.712 499.712 0 0 0-100.352-107.95008 517.16096 517.16096 0 0 0-90.112-57.79456c-5.7344-0.28672-11.53024-0.4096-17.34656-0.45056a504.91392 504.91392 0 0 0-85.83168 40.1408zM843.32544 580.21888c-3.64544-12.55424-7.82336-24.80128-12.41088-36.72064a330.83392 330.83392 0 0 1-43.008 131.60448A481.81248 481.81248 0 0 1 757.76 767.03744q-35.79904 80.1792-94.04416 136.84736a583.68 583.68 0 0 0 161.3824-55.05024 4.46464 4.46464 0 0 0 2.3552-4.096 4.62848 4.62848 0 0 0-4.62848-4.66944H789.9136a22.016 22.016 0 0 1-14.99136-38.01088 402.944 402.944 0 0 0 87.08096-118.29248c-0.38912-5.69344-0.73728-11.42784-1.29024-16.93696a478.14656 478.14656 0 0 0-17.38752-86.60992z" p-id="658"></path><path d="M328.78592 572.12928a52.4288 52.18304 90 1 0 104.36608 0 52.4288 52.18304 90 1 0-104.36608 0Z" p-id="659"></path><path d="M256.32768 298.88512a490.12736 490.12736 0 0 0-53.92384 103.60832q-7.20896 18.8416-12.92288 39.07584h223.232a22.95808 22.95808 0 0 0 19.84512-11.3664l60.7232-105.65632a10.24 10.24 0 0 1 18.18624 0.12288l60.45696 105.1648a22.97856 22.97856 0 0 0 19.94752 11.71456h185.5488c-0.55296-0.79872-1.06496-1.6384-1.61792-2.43712a501.06368 501.06368 0 0 0-100.352-107.90912C616.89856 284.672 549.02784 248.79104 462.848 231.0144a520.192 520.192 0 0 0-68.89472-9.15456c-8.192-0.53248-17.1008-0.65536-25.55904-1.04448h-10.83392q-19.53792 0.49152-37.84704 2.048a530.7392 530.7392 0 0 0-63.3856 76.02176zM757.76 767.03744a481.81248 481.81248 0 0 0 30.04416-91.91424c-57.344 98.67264-163.7376 165.02784-285.5936 165.02784-174.77632 0-317.80864-136.37632-329.728-308.98176a542.59712 542.59712 0 0 0 6.43072 145.6128 531.41504 531.41504 0 0 0 30.72 105.39008q6.71744 7.22944 13.78304 14.1312C311.296 881.9712 434.81088 913.8176 555.008 913.8176a597.05344 597.05344 0 0 0 108.70784-9.9328q58.42944-56.6272 94.04416-136.84736zM571.14624 597.72928a17.12128 17.12128 0 1 0 34.24256 0 33.87392 33.87392 0 1 1 67.72736 0 17.12128 17.12128 0 1 0 34.24256 0 68.11648 68.11648 0 1 0-136.23296 0z" p-id="660"></path></svg>